<svg xmlns="http://www.w3.org/2000/svg" viewBox="0 0 24 24" width="48" height="48">
  <defs>
    <linearGradient id="sunGrad" x1="0%" y1="0%" x2="100%" y2="0%">
      <stop offset="0%" stop-color="#10a3ff" />
      <stop offset="100%" stop-color="#10a3ff99" />
    </linearGradient>
  </defs>

  <!-- center -->
  <circle cx="12" cy="12" r="5" fill="url(#sunGrad)"/>

  <!-- rays -->
  <rect x="11" y="1" width="2" height="4" rx="1" fill="url(#sunGrad)"/> <!-- top -->
  <rect x="11" y="19" width="2" height="4" rx="1" fill="url(#sunGrad)"/> <!-- bottom -->
  <rect x="1" y="11" width="4" height="2" rx="1" fill="url(#sunGrad)"/> <!-- left -->
  <rect x="19" y="11" width="4" height="2" rx="1" fill="url(#sunGrad)"/> <!-- right -->

  <rect x="4.22" y="4.22" width="2" height="4" rx="1" transform="rotate(-45 5.22 6.22)" fill="url(#sunGrad)"/> <!-- top-left -->
  <rect x="17.78" y="4.22" width="2" height="4" rx="1" transform="rotate(45 18.78 6.22)" fill="url(#sunGrad)"/> <!-- top-right -->
  <rect x="17.78" y="15.78" width="2" height="4" rx="1" transform="rotate(-45 18.78 17.78)" fill="url(#sunGrad)"/> <!-- bottom-right -->
  <rect x="4.22" y="15.78" width="2" height="4" rx="1" transform="rotate(45 5.22 17.78)" fill="url(#sunGrad)"/> <!-- bottom-left -->
</svg>